<svg width="96" height="19" viewBox="0 0 96 19" fill="none" xmlns="http://www.w3.org/2000/svg">
<g id="Logotype">
<path d="M0.926758 18.1991V15.3197H3.21046V3.70256H0.926758V0.823106H9.86299C10.9221 0.823106 11.8405 1.00514 12.6183 1.36921C13.4127 1.71673 14.025 2.22146 14.4552 2.88341C14.902 3.5288 15.1254 4.30658 15.1254 5.21676V5.46498C15.1254 6.25932 14.9765 6.91299 14.6786 7.42599C14.3808 7.92245 14.025 8.31134 13.6112 8.59267C13.2141 8.85744 12.8335 9.04775 12.4694 9.16359V9.6104C12.8335 9.7097 13.2306 9.90001 13.6609 10.1813C14.0912 10.4461 14.4552 10.835 14.7531 11.348C15.0675 11.861 15.2247 12.5312 15.2247 13.3587V13.6069C15.2247 14.5667 15.0013 15.3941 14.5545 16.0892C14.1077 16.7677 13.4871 17.2889 12.6928 17.653C11.915 18.0171 11.0048 18.1991 9.96229 18.1991H0.926758ZM6.48708 15.2204H9.56512C10.2767 15.2204 10.8476 15.0466 11.2779 14.6991C11.7247 14.3516 11.9481 13.8551 11.9481 13.2097V12.9615C11.9481 12.3161 11.733 11.8196 11.3027 11.4721C10.8725 11.1246 10.2933 10.9508 9.56512 10.9508H6.48708V15.2204ZM6.48708 7.9721H9.51547C10.194 7.9721 10.7483 7.79833 11.1786 7.45081C11.6254 7.10329 11.8488 6.62339 11.8488 6.01109V5.76286C11.8488 5.13401 11.6337 4.6541 11.2034 4.32313C10.7732 3.97561 10.2105 3.80185 9.51547 3.80185H6.48708V7.9721Z" fill="#101828"/>
<path d="M22.6235 18.5466C21.3989 18.5466 20.2984 18.2984 19.3221 17.802C18.3457 17.3055 17.5762 16.5856 17.0135 15.6424C16.4509 14.6991 16.1696 13.5655 16.1696 12.2416V11.8445C16.1696 10.5206 16.4509 9.387 17.0135 8.44373C17.5762 7.50046 18.3457 6.7806 19.3221 6.28414C20.2984 5.78768 21.3989 5.53945 22.6235 5.53945C23.8481 5.53945 24.9486 5.78768 25.9249 6.28414C26.9013 6.7806 27.6708 7.50046 28.2335 8.44373C28.7961 9.387 29.0774 10.5206 29.0774 11.8445V12.2416C29.0774 13.5655 28.7961 14.6991 28.2335 15.6424C27.6708 16.5856 26.9013 17.3055 25.9249 17.802C24.9486 18.2984 23.8481 18.5466 22.6235 18.5466ZM22.6235 15.7665C23.5833 15.7665 24.3777 15.4603 25.0065 14.848C25.6353 14.2192 25.9498 13.3256 25.9498 12.1672V11.9189C25.9498 10.7605 25.6353 9.87518 25.0065 9.26288C24.3942 8.63404 23.5999 8.31962 22.6235 8.31962C21.6637 8.31962 20.8694 8.63404 20.2405 9.26288C19.6117 9.87518 19.2972 10.7605 19.2972 11.9189V12.1672C19.2972 13.3256 19.6117 14.2192 20.2405 14.848C20.8694 15.4603 21.6637 15.7665 22.6235 15.7665Z" fill="#101828"/>
<path d="M30.7233 18.1991V0.823106H33.851V18.1991H30.7233Z" fill="#101828"/>
<path d="M40.7921 18.1991C39.9812 18.1991 39.3193 17.9509 38.8063 17.4544C38.3098 16.9414 38.0616 16.2629 38.0616 15.419V8.46855H34.9835V5.88697H38.0616V2.06425H41.1893V5.88697H44.5652V8.46855H41.1893V14.8729C41.1893 15.3693 41.4209 15.6175 41.8843 15.6175H44.2673V18.1991H40.7921Z" fill="#101828"/>
<path d="M51.2687 18.5466C49.6635 18.5466 48.3479 18.1991 47.3219 17.5041C46.2959 16.809 45.6753 15.8161 45.4602 14.5253L48.3396 13.7806C48.4555 14.3598 48.6458 14.8149 48.9105 15.1459C49.1919 15.4769 49.5311 15.7168 49.9283 15.8658C50.342 15.9982 50.7888 16.0644 51.2687 16.0644C51.9968 16.0644 52.5347 15.9402 52.8822 15.692C53.2297 15.4272 53.4035 15.1045 53.4035 14.7239C53.4035 14.3433 53.238 14.0537 52.907 13.8551C52.576 13.64 52.0465 13.4662 51.3184 13.3338L50.6233 13.2097C49.7628 13.0442 48.9767 12.8208 48.2651 12.5395C47.5536 12.2416 46.9826 11.8362 46.5524 11.3232C46.1221 10.8102 45.907 10.1482 45.907 9.33735C45.907 8.11276 46.3538 7.17776 47.2474 6.53237C48.141 5.87042 49.316 5.53945 50.7723 5.53945C52.1458 5.53945 53.2876 5.8456 54.1978 6.4579C55.108 7.0702 55.7037 7.8728 55.9851 8.86572L53.0808 9.75934C52.9484 9.1305 52.6753 8.68368 52.2616 8.41891C51.8645 8.15413 51.368 8.02174 50.7723 8.02174C50.1765 8.02174 49.7214 8.12931 49.407 8.34444C49.0926 8.54302 48.9354 8.82435 48.9354 9.18842C48.9354 9.58558 49.1008 9.88346 49.4318 10.082C49.7628 10.2641 50.2096 10.4047 50.7723 10.504L51.4673 10.6281C52.394 10.7936 53.2297 11.017 53.9744 11.2984C54.7356 11.5631 55.3314 11.952 55.7617 12.465C56.2085 12.9615 56.4319 13.64 56.4319 14.5005C56.4319 15.7913 55.9602 16.7925 55.017 17.5041C54.0902 18.1991 52.8408 18.5466 51.2687 18.5466Z" fill="#101828"/>
<path d="M57.9315 18.1991V0.823106H61.0592V7.40117H61.506C61.6384 7.13639 61.8453 6.87161 62.1266 6.60684C62.4079 6.34206 62.7803 6.12693 63.2436 5.96144C63.7235 5.77941 64.3275 5.68839 65.0557 5.68839C66.0155 5.68839 66.8512 5.9118 67.5628 6.35861C68.2909 6.78887 68.8536 7.39289 69.2508 8.17068C69.6479 8.93191 69.8465 9.82554 69.8465 10.8515V18.1991H66.7188V11.0998C66.7188 10.1731 66.4871 9.47802 66.0238 9.01466C65.577 8.5513 64.9316 8.31962 64.0876 8.31962C63.1278 8.31962 62.3831 8.64231 61.8535 9.28771C61.324 9.91655 61.0592 10.8019 61.0592 11.9438V18.1991H57.9315Z" fill="#101828"/>
<path d="M71.9865 18.1991V5.88697H75.1142V18.1991H71.9865ZM73.5503 4.44725C72.9877 4.44725 72.5078 4.26521 72.1106 3.90114C71.73 3.53707 71.5397 3.05717 71.5397 2.46142C71.5397 1.86567 71.73 1.38576 72.1106 1.02169C72.5078 0.65762 72.9877 0.475586 73.5503 0.475586C74.1295 0.475586 74.6095 0.65762 74.9901 1.02169C75.3707 1.38576 75.561 1.86567 75.561 2.46142C75.561 3.05717 75.3707 3.53707 74.9901 3.90114C74.6095 4.26521 74.1295 4.44725 73.5503 4.44725Z" fill="#101828"/>
<path d="M79.3744 18.1991V8.46855H76.2467V5.88697H79.3744V3.60327C79.3744 2.75929 79.6226 2.08907 80.1191 1.59262C80.6321 1.07961 81.2941 0.823106 82.1049 0.823106H85.3319V3.40469H83.1971C82.7338 3.40469 82.5021 3.65291 82.5021 4.14937V5.88697H85.7291V8.46855H82.5021V18.1991H79.3744Z" fill="#101828"/>
<path d="M91.3833 18.1991C90.5724 18.1991 89.9104 17.9509 89.3974 17.4544C88.901 16.9414 88.6527 16.2629 88.6527 15.419V8.46855H85.5747V5.88697H88.6527V2.06425H91.7804V5.88697H95.1563V8.46855H91.7804V14.8729C91.7804 15.3693 92.0121 15.6175 92.4755 15.6175H94.8585V18.1991H91.3833Z" fill="#101828"/>
</g>
</svg>
