<svg width="33" height="38" viewBox="0 0 33 38" fill="none" xmlns="http://www.w3.org/2000/svg">
<g id="Logomark">
<path id="Shape" fillRule="evenodd" clipRule="evenodd" d="M17.1211 1.99463C16.7033 1.90869 16.2723 1.90869 15.8544 1.99463C15.3713 2.09398 14.9396 2.33581 14.5963 2.52806L14.5028 2.58033L2.86954 9.04323C2.83738 9.0611 2.80423 9.07935 2.77028 9.09806C2.40693 9.29819 1.95006 9.54983 1.59922 9.93055C1.29589 10.2597 1.06633 10.6498 0.925911 11.0748C0.763491 11.5664 0.765391 12.088 0.766902 12.5028C0.767043 12.5416 0.767181 12.5794 0.767181 12.6162V25.3768C0.767181 25.4136 0.767043 25.4514 0.766902 25.4902C0.765391 25.905 0.763491 26.4266 0.925911 26.9182C1.06634 27.3432 1.29589 27.7333 1.59922 28.0624C1.95006 28.4432 2.40693 28.6948 2.77028 28.8949C2.80424 28.9136 2.83738 28.9319 2.86954 28.9498L14.5028 35.4127L14.5963 35.4649C14.9396 35.6572 15.3713 35.899 15.8544 35.9984C16.2723 36.0843 16.7033 36.0843 17.1211 35.9984C17.6042 35.899 18.0359 35.6572 18.3792 35.4649L18.4727 35.4127L30.106 28.9498C30.1202 28.9419 30.1346 28.9339 30.1492 28.9258C30.1676 28.9157 30.1863 28.9054 30.2052 28.8949C30.5686 28.6948 31.0254 28.4432 31.3763 28.0624C31.6796 27.7333 31.9092 27.3432 32.0496 26.9182C32.212 26.4266 32.2101 25.905 32.2086 25.4902C32.2085 25.4514 32.2083 25.4136 32.2083 25.3768V12.6162C32.2083 12.5794 32.2085 12.5416 32.2086 12.5028C32.2101 12.088 32.212 11.5664 32.0496 11.0748C31.9092 10.6498 31.6796 10.2597 31.3763 9.93054C31.0254 9.54982 30.5686 9.29818 30.2052 9.09805L30.2039 9.09734C30.1704 9.07889 30.1377 9.06087 30.106 9.04323L18.4728 2.58033L18.3792 2.52806C18.0359 2.3358 17.6042 2.09398 17.1211 1.99463ZM16.0297 5.32878C16.2679 5.19643 16.3895 5.12955 16.4802 5.0858L16.4878 5.0822L16.4953 5.0858C16.586 5.12955 16.7076 5.19642 16.9458 5.32878L27.3991 11.1362L16.4877 17.1981L5.57632 11.1362L16.0297 5.32878ZM3.9113 13.8079L14.9157 19.9215L14.9157 32.0453L4.39646 26.2013C4.145 26.0616 4.01662 25.9895 3.92655 25.9322L3.91894 25.9273L3.91837 25.9183C3.91195 25.8117 3.9113 25.6644 3.9113 25.3768V13.8079Z" fill="#101828"/>
</g>
</svg>
