<svg width="37" height="38" viewBox="0 0 37 38" fill="none" xmlns="http://www.w3.org/2000/svg">
<g id="Logomark" clipPath="url(#clip0_2002_137)">
<g id="Shape">
<path d="M22.8677 2.55213L19.3753 1.61633L16.4322 12.6002L13.7751 2.68389L10.2826 3.61969L13.1534 14.3335L6.00288 7.18302L3.44624 9.73966L11.2895 17.5829L1.52198 14.9657L0.586182 18.4581L11.2584 21.3178C11.1362 20.7907 11.0716 20.2416 11.0716 19.6774C11.0716 15.6837 14.3091 12.4461 18.3029 12.4461C22.2966 12.4461 25.5341 15.6837 25.5341 19.6774C25.5341 20.238 25.4703 20.7837 25.3496 21.3076L35.0487 23.9065L35.9844 20.4141L25.2698 17.5431L35.0379 14.9257L34.1021 11.4333L23.3879 14.3041L30.5384 7.15366L27.9818 4.59702L20.2473 12.3315L22.8677 2.55213Z" fill="#FF4405"/>
<path d="M25.3394 21.3483C25.04 22.6142 24.4078 23.7514 23.5405 24.6626L30.567 31.6892L33.1237 29.1325L25.3394 21.3483Z" fill="#FF4405"/>
<path d="M23.4695 24.736C22.5917 25.6326 21.4823 26.3017 20.2383 26.6465L22.7951 36.1887L26.2875 35.2528L23.4695 24.736Z" fill="#FF4405"/>
<path d="M20.1078 26.6814C19.5307 26.8298 18.9257 26.9087 18.3022 26.9087C17.6343 26.9087 16.9875 26.8181 16.3735 26.6486L13.8143 36.1994L17.3067 37.1352L20.1078 26.6814Z" fill="#FF4405"/>
<path d="M16.25 26.6134C15.0249 26.2514 13.9353 25.5738 13.0754 24.6746L6.03158 31.7185L8.58822 34.2751L16.25 26.6134Z" fill="#FF4405"/>
<path d="M13.0174 24.6124C12.1722 23.7075 11.5566 22.5855 11.2635 21.3391L1.5328 23.9465L2.46859 27.4389L13.0174 24.6124Z" fill="#FF4405"/>
</g>
</g>
<defs>
<clipPath id="clip0_2002_137">
<rect width="36.4069" height="36.4069" fill="white" transform="translate(0.304199 0.796631)"/>
</clipPath>
</defs>
</svg>
