<svg width="92" height="24" viewBox="0 0 92 24" fill="none" xmlns="http://www.w3.org/2000/svg">
<g id="Logotype">
<path d="M6.95136 18.4729C10.8486 18.4729 13.4798 16.4374 13.4798 13.1856C13.4798 6.30971 4.34496 9.23881 4.34496 5.61467C4.34496 4.59693 5.26341 3.90189 6.72796 3.90189C8.39109 3.90189 9.43365 4.79551 9.55777 6.16077H13.1074C13.0081 2.85933 10.4762 0.699737 6.72796 0.699737C3.20311 0.699737 0.720823 2.73521 0.720823 5.61467C0.720823 12.441 9.73153 9.83456 9.73153 13.2353C9.73153 14.5509 8.6145 15.2459 6.95136 15.2459C5.11447 15.2459 3.9478 14.1289 3.79886 12.3665H0.224365C0.373303 16.0651 3.00453 18.4729 6.95136 18.4729Z" fill="#101828"/>
<path d="M14.324 23.3382H17.7743V17.1573C18.4445 18.0013 19.6609 18.4729 21.0758 18.4729C24.6751 18.4729 27.1077 15.9162 27.1077 12.019C27.1077 8.12178 24.8737 5.56502 21.3736 5.56502C19.7602 5.56502 18.519 6.16077 17.7743 7.12886V5.7636H14.324V23.3382ZM20.6538 15.4942C18.7921 15.4942 17.5758 14.1041 17.5758 12.019C17.5758 9.90902 18.7921 8.51894 20.6538 8.51894C22.4659 8.51894 23.707 9.90902 23.707 12.019C23.707 14.1041 22.4659 15.4942 20.6538 15.4942Z" fill="#101828"/>
<path d="M27.9426 18.2743H31.393V11.4232C31.393 9.80973 32.4604 8.64306 33.9746 8.64306C35.4143 8.64306 36.4072 9.73526 36.4072 11.2495V18.2743H39.8576V10.4799C39.8576 7.6005 38.0207 5.56502 35.2157 5.56502C33.4781 5.56502 32.1128 6.28488 31.393 7.5012V0.327393H27.9426V18.2743Z" fill="#101828"/>
<path d="M49.5098 14.0296C49.2367 15.097 48.3183 15.6431 46.9282 15.6431C45.1906 15.6431 44.0736 14.5509 43.8254 12.7885H52.8112C52.8361 12.5154 52.8609 12.1431 52.8609 11.6714C52.8609 8.81682 51.0985 5.56502 46.68 5.56502C42.4353 5.56502 40.4991 8.81682 40.4991 11.9941C40.4991 15.1467 42.6835 18.4729 46.9282 18.4729C50.0063 18.4729 52.3892 16.7353 52.8857 14.0296H49.5098ZM46.68 8.09695C48.3431 8.09695 49.3112 9.21398 49.4105 10.6041H43.875C44.1729 8.86646 45.1161 8.09695 46.68 8.09695Z" fill="#101828"/>
<path d="M61.91 8.64306V5.7636H60.1297C58.6155 5.7636 57.6723 6.28488 57.002 7.84872V5.7636H53.5268V18.2743H57.002V12.1927C57.002 10.058 57.7715 8.64306 59.4843 8.64306H61.91Z" fill="#101828"/>
<path d="M73.825 5.7636H70.3498V12.6147C70.3498 14.2034 69.2824 15.3949 67.7682 15.3949C66.3533 15.3949 65.3604 14.3027 65.3604 12.7885V5.7636H61.91V13.558C61.91 16.4126 63.7469 18.4729 66.5519 18.4729C68.2646 18.4729 69.6547 17.7282 70.3498 16.5367V18.2743H73.825V5.7636Z" fill="#101828"/>
<path d="M75.3145 18.2743H78.7649V0.327393H75.3145V18.2743Z" fill="#101828"/>
<path d="M88.6155 14.0296C88.3425 15.097 87.424 15.6431 86.0339 15.6431C84.2963 15.6431 83.1793 14.5509 82.9311 12.7885H91.917C91.9418 12.5154 91.9666 12.1431 91.9666 11.6714C91.9666 8.81682 90.2042 5.56502 85.7857 5.56502C81.541 5.56502 79.6048 8.81682 79.6048 11.9941C79.6048 15.1467 81.7892 18.4729 86.0339 18.4729C89.112 18.4729 91.495 16.7353 91.9914 14.0296H88.6155ZM85.7857 8.09695C87.4488 8.09695 88.4169 9.21398 88.5162 10.6041H82.9807C83.2786 8.86646 84.2219 8.09695 85.7857 8.09695Z" fill="#101828"/>
</g>
</svg>
