<svg width="119" height="19" viewBox="0 0 119 19" fill="none" xmlns="http://www.w3.org/2000/svg">
<g id="Logotype">
<path d="M8.71021 18.4729C10.9443 18.4729 12.7812 17.3311 13.3521 15.6183V18.2743H16.6535V11.5722C16.6535 10.058 15.462 8.76717 13.8485 8.76717H9.1322V11.5722H12.4833C12.9053 11.5722 13.1783 11.8452 13.1783 12.2672C13.1783 13.8807 11.0436 15.4445 8.88397 15.4445C6.00452 15.4445 3.72081 13.1856 3.72081 9.58633C3.72081 5.98701 6.00452 3.90189 8.95844 3.90189C11.1925 3.90189 12.7315 5.11821 13.0046 6.97992H16.7032C16.4798 3.25649 13.3521 0.699737 8.98326 0.699737C4.39103 0.699737 0.171143 3.65366 0.171143 9.58633C0.171143 15.519 4.26692 18.4729 8.71021 18.4729Z" fill="#101828"/>
<path d="M18.0708 18.2743H21.5211V0.327393H18.0708V18.2743Z" fill="#101828"/>
<path d="M28.9639 18.4729C32.8115 18.4729 35.5668 15.7424 35.5668 12.019C35.5668 8.29554 32.8115 5.56502 28.9639 5.56502C25.1164 5.56502 22.361 8.29554 22.361 12.019C22.361 15.7424 25.1164 18.4729 28.9639 18.4729ZM28.9639 15.4942C27.1022 15.4942 25.8363 14.0793 25.8363 12.019C25.8363 9.93385 27.1022 8.51894 28.9639 8.51894C30.8256 8.51894 32.0916 9.93385 32.0916 12.019C32.0916 14.0793 30.8256 15.4942 28.9639 15.4942Z" fill="#101828"/>
<path d="M43.2875 18.4729C46.9861 18.4729 49.1954 15.9162 49.1954 12.019C49.1954 8.12178 46.9861 5.56502 43.3372 5.56502C41.7733 5.56502 40.557 6.16077 39.8619 7.07922V0.327393H36.4116V18.2743H39.8619V16.9091C40.557 17.8772 41.8478 18.4729 43.2875 18.4729ZM42.7414 15.4942C40.8797 15.4942 39.6634 14.1041 39.6634 12.019C39.6634 9.90902 40.8797 8.51894 42.7414 8.51894C44.5535 8.51894 45.7946 9.90902 45.7946 12.019C45.7946 14.1041 44.5535 15.4942 42.7414 15.4942Z" fill="#101828"/>
<path d="M54.9711 5.56502C51.5456 5.56502 49.5101 7.57567 49.3612 10.0828H52.4392C52.4888 9.04022 53.2584 8.09695 54.7725 8.09695C56.1875 8.09695 57.0066 8.81682 57.0066 9.85938C57.0066 10.3807 56.6839 10.7778 56.0633 10.7778H53.9534C51.2229 10.7778 49.386 12.2672 49.386 14.7247C49.386 16.8594 51.0491 18.4729 53.4818 18.4729C55.1945 18.4729 56.5846 17.7034 57.0066 16.5367V18.2743H60.4322V10.2317C60.4322 7.40191 58.1236 5.56502 54.9711 5.56502ZM54.3506 15.9658C53.3825 15.9658 52.6874 15.3949 52.6874 14.5757C52.6874 13.6076 53.4321 12.9622 54.4747 12.9622H57.0066V13.136C57.0066 14.7247 56.0385 15.9658 54.3506 15.9658Z" fill="#101828"/>
<path d="M61.7581 18.2743H65.2084V0.327393H61.7581V18.2743Z" fill="#101828"/>
<path d="M67.0413 18.2743H74.1406C77.8144 18.2743 80.3463 16.3878 80.3463 13.0864C80.3463 10.8026 79.0059 9.41257 77.4172 8.79199C78.435 8.24589 79.4527 7.00475 79.4527 5.36644C79.4527 2.46216 77.0945 0.898319 73.942 0.898319H67.0413V18.2743ZM70.715 7.52603V3.85224H73.5945C75.2576 3.85224 76.0023 4.52246 76.0023 5.68913C76.0023 6.85581 75.2576 7.52603 73.669 7.52603H70.715ZM70.715 15.0474V10.6785H73.8179C75.8782 10.6785 76.7966 11.4729 76.7966 12.8878C76.7966 14.3027 75.8782 15.0474 73.8179 15.0474H70.715Z" fill="#101828"/>
<path d="M86.3488 5.56502C82.9232 5.56502 80.8878 7.57567 80.7388 10.0828H83.8169C83.8665 9.04022 84.636 8.09695 86.1502 8.09695C87.5651 8.09695 88.3843 8.81682 88.3843 9.85938C88.3843 10.3807 88.0616 10.7778 87.441 10.7778H85.3311C82.6005 10.7778 80.7637 12.2672 80.7637 14.7247C80.7637 16.8594 82.4268 18.4729 84.8594 18.4729C86.5722 18.4729 87.9623 17.7034 88.3843 16.5367V18.2743H91.8098V10.2317C91.8098 7.40191 89.5013 5.56502 86.3488 5.56502ZM85.7282 15.9658C84.7601 15.9658 84.0651 15.3949 84.0651 14.5757C84.0651 13.6076 84.8098 12.9622 85.8523 12.9622H88.3843V13.136C88.3843 14.7247 87.4162 15.9658 85.7282 15.9658Z" fill="#101828"/>
<path d="M92.9371 18.2743H96.4123V11.4232C96.4123 9.80973 97.4797 8.64306 98.9939 8.64306C100.434 8.64306 101.402 9.73526 101.402 11.2495V18.2743H104.877V10.4799C104.877 7.6005 103.04 5.56502 100.21 5.56502C98.4975 5.56502 97.1074 6.28488 96.4123 7.5012V5.7636H92.9371V18.2743Z" fill="#101828"/>
<path d="M114.781 18.2743H118.952L113.565 10.6785L118.555 5.7636H114.186L109.842 10.0331V0.327393H106.367V18.2743H109.842V14.3523L111.232 12.9871L114.781 18.2743Z" fill="#101828"/>
</g>
</svg>
