<svg width="106" height="19" viewBox="0 0 106 19" fill="none" xmlns="http://www.w3.org/2000/svg">
<g id="Logotype">
<path d="M11.9997 0.82312V13.4083L3.9323 0.82312H0.705322V18.1991H3.9323V5.71323L11.9997 18.1991H15.2267V0.82312H11.9997Z" fill="#101828"/>
<path d="M16.6808 4.07492H20.007V0.82312H16.6808V4.07492ZM16.7304 18.1991V5.7877H19.9574V18.1991H16.7304Z" fill="#101828"/>
<path d="M33.8417 11.9934C33.8417 7.69906 30.7885 5.66358 27.5615 5.63876C24.3097 5.61394 21.3062 7.69906 21.3062 11.9934C21.3062 16.2878 24.3097 18.3729 27.5615 18.3481C30.5155 18.3232 32.5509 16.958 33.4942 14.6991L30.9871 13.6565C30.2176 15.1956 29.0013 15.7417 27.5615 15.7665C26.3204 15.7913 24.9055 15.1956 24.6076 12.9863H33.7673C33.8169 12.6636 33.8417 12.3409 33.8417 11.9934ZM27.5615 8.19551C28.8027 8.22034 30.0687 8.89056 30.4658 10.6778H24.6573C25.0793 8.86573 26.3452 8.17069 27.5615 8.19551Z" fill="#101828"/>
<path d="M41.2994 8.09622V5.63876H39.264V2.31249L36.037 3.30541V5.63876H34.0015V8.09622H36.037V14.5253C36.037 16.958 36.2356 18.1991 40.0087 18.1991H40.8775V15.3693H40.0087C39.4129 15.3693 39.264 15.27 39.264 14.5253V8.09622H41.2994Z" fill="#101828"/>
<path d="M46.0945 15.4934L52.9456 8.49339V5.7877H42.669V8.49339H49.3215L42.4704 15.4934V18.1991H53.0201V15.4934H46.0945Z" fill="#101828"/>
<path d="M54.1771 14.6991L57.4289 14.2027C57.6523 15.4438 59.1168 15.9154 60.0105 15.9154C60.9289 15.9154 62.5176 15.7168 62.5176 14.2275C62.5176 11.3232 54.5494 14.9473 54.5494 9.38701C54.5494 5.81252 58.6949 5.61394 60.0105 5.61394C61.2516 5.61394 64.8509 5.81252 65.5956 8.69197L62.5176 9.33737C62.2445 8.02175 60.8544 7.77353 60.1098 7.77353C59.3651 7.77353 57.7764 7.94729 57.7764 9.38701C57.7764 12.2665 65.7446 8.59268 65.7446 14.2275C65.7446 18.0254 61.3757 18.3481 60.0105 18.3481C58.7693 18.3481 54.8225 18.0254 54.1771 14.6991Z" fill="#101828"/>
<path d="M69.9367 11.9934C69.9367 15.0218 71.5502 15.9403 73.2382 15.9154C74.7523 15.8906 75.7949 15.27 76.4155 13.5324L79.0715 14.8232C78.1034 17.3552 75.7453 18.3232 73.2382 18.3481C69.9864 18.3729 66.7097 16.2878 66.7097 11.9934C66.7097 7.69906 69.9864 5.61394 73.2382 5.63876C75.7453 5.66358 78.1034 6.63167 79.0715 9.16361L76.4155 10.4544C75.7949 8.71679 74.7523 8.09622 73.2382 8.0714C71.5502 8.04658 69.9367 8.96502 69.9367 11.9934Z" fill="#101828"/>
<path d="M87.7345 5.58911C86.0714 5.58911 84.5572 6.45791 83.5891 8.31963V0.82312H80.3621V18.1991H83.5891V13.8055C83.5891 8.12105 85.9473 7.64941 86.8161 7.64941C88.2061 7.64941 88.4047 9.08914 88.4047 11.1991V18.1991H91.6317V11.1991C91.6317 8.56786 91.2097 5.58911 87.7345 5.58911Z" fill="#101828"/>
<path d="M105.256 11.9934C105.256 7.69906 102.203 5.66358 98.9758 5.63876C95.724 5.61394 92.7204 7.69906 92.7204 11.9934C92.7204 16.2878 95.724 18.3729 98.9758 18.3481C101.93 18.3232 103.965 16.958 104.908 14.6991L102.401 13.6565C101.632 15.1956 100.416 15.7417 98.9758 15.7665C97.7346 15.7913 96.3197 15.1956 96.0219 12.9863H105.182C105.231 12.6636 105.256 12.3409 105.256 11.9934ZM98.9758 8.19551C100.217 8.22034 101.483 8.89056 101.88 10.6778H96.0715C96.4935 8.86573 97.7595 8.17069 98.9758 8.19551Z" fill="#101828"/>
</g>
</svg>
