<svg width="38" height="38" viewBox="0 0 38 38" fill="none" xmlns="http://www.w3.org/2000/svg">
<g id="Logomark">
<circle id="Shape" cx="19.1507" cy="19.2067" r="16.9623" stroke="#6927DA" strokeWidth="2.48229"/>
<path id="Shape_2" d="M25.8792 25.9353C22.4541 29.3604 18.5739 31.5963 15.1182 32.4849C11.6314 33.3815 8.82092 32.8653 7.15662 31.201C5.49232 29.5368 4.97618 26.7263 5.87281 23.2394C6.7614 19.7838 8.99729 15.9035 12.4223 12.4785C15.8474 9.05341 19.7277 6.81752 23.1833 5.92892C26.6702 5.0323 29.4806 5.54844 31.1449 7.21274C32.8092 8.87703 33.3254 11.6875 32.4287 15.1744C31.5402 18.63 29.3043 22.5103 25.8792 25.9353Z" stroke="#6927DA" strokeWidth="2.48229"/>
<path id="Shape_3" d="M25.8791 12.4785C29.3042 15.9035 31.5401 19.7838 32.4287 23.2394C33.3253 26.7263 32.8091 29.5367 31.1448 31.201C29.4805 32.8653 26.6701 33.3815 23.1832 32.4849C19.7276 31.5963 15.8473 29.3604 12.4222 25.9353C8.99719 22.5103 6.7613 18.63 5.87271 15.1744C4.97609 11.6875 5.49223 8.87703 7.15652 7.21273C8.82082 5.54844 11.6313 5.0323 15.1182 5.92892C18.5738 6.81751 22.454 9.0534 25.8791 12.4785Z" stroke="#6927DA" strokeWidth="2.48229"/>
</g>
</svg>
